<svg xmlns="http://www.w3.org/2000/svg" viewBox="0 0 490.09 98.96">
    <defs>
        <style>.cls-1{fill:#00323c;}.cls-2{fill:#00a89a;}</style>
    </defs>
    <title>Logo_4c</title>
    <path class="cls-1" d="M474.45,321.63H465v-40.5c0-6.5-3.8-8.6-9.3-8.6h-3.3c-6,0-9.7,2.1-9.7,8.6v40.5h-9.4V278c0-10.2,4.14-14.4,16.3-14.4h7.5c6.6,0,10.8,2.8,12.6,6.3,1.7-3.5,6-6.3,12.3-6.3h7.51c9.5,0,16.3,4.3,16.3,14.5v43.5h-9.4v-40.5c0-6.5-3.7-8.6-9.3-8.6h-3.31c-6,0-9.3,2.1-9.3,8.4Z" transform="translate(-179.06 -231.48)"/><path class="cls-1" d="M516.25,306.93v-8.6c0-10.2,6.8-14.4,16.3-14.4h25.9v-2.8c0-6.5-3.6-8.6-9.3-8.6h-32.3v-8.9h34.7c9.5,0,16.4,4.2,16.4,14.4v28.9c0,10.2-6.9,14.7-16.4,14.7h-19C523.05,321.63,516.25,317.13,516.25,306.93Zm42.2-6.2v-7.9h-22.1c-5.4,0-10.7,1-10.7,7.4v3.5c0,7.8,3.7,9.1,10.8,9.1h12.7C557.15,312.83,558.45,310.43,558.45,300.73Z" transform="translate(-179.06 -231.48)"/><path class="cls-1" d="M605.45,292.53l21.2,29.1h-11.2L599.85,301l-15.7,20.6H573l21.2-29-21.1-29h11.3l15.5,20.5,15.4-20.5h11.4Z" transform="translate(-179.06 -231.48)"/><path class="cls-1" d="M648,292.53l21.2,29.1H658L642.35,301l-15.7,20.6h-11.2l21.2-29-21.1-29h11.3l15.5,20.5,15.41-20.5h11.4Z" transform="translate(-179.06 -231.48)"/><path class="cls-1" d="M317.56,321.63H307.35v-81h10.21Z" transform="translate(-179.06 -231.48)"/><path class="cls-1" d="M416.86,250.43v71.2h-10.3v-71.2h-29.5v-9.8h69v9.8Z" transform="translate(-179.06 -231.48)"/><path class="cls-1" d="M390.16,307c0,10.2-6.8,14.6-16.3,14.6h-25.4c-9.51,0-16.31-4.6-16.31-14.8v-28.6c0-10.2,6.8-14.6,16.31-14.6h25.4c9.5,0,16.3,4.1,16.3,14.3Zm-48.51-2.8c0,6.4,3.61,8.6,9.7,8.6H370c6.3,0,10.8-1.3,10.8-8.6v-23.1c0-7.3-4.6-8.6-10.8-8.6H351.35c-6.09,0-9.7,2.1-9.7,8.6Z" transform="translate(-179.06 -231.48)"/><path class="cls-2" d="M268.52,286v27c0,7.31-4.5,8.6-10.8,8.6H235.67V286.24a7.13,7.13,0,0,0-14.26,0v35.39H198.26c-6.1,0-9.7-2.2-9.7-8.6V282.8l-4.75,3.2-4.75-3.2v32.83c0,10.21,6.8,14.81,16.3,14.81h66.35c9.51,0,16.31-4.4,16.31-14.61V286l-4.75-3.2Z" transform="translate(-179.06 -231.48)"/><path class="cls-2" d="M261.71,231.48H195.36c-9.5,0-16.3,4.4-16.3,14.6v29.83l4.75,3.2,4.75-3.2V249c0-6.5,3.6-8.6,9.7-8.6h59.46c6.2,0,10.8,1.3,10.8,8.6v30.13l4.75-3.2,4.75,3.2V245.78C278,235.58,271.22,231.48,261.71,231.48Z" transform="translate(-179.06 -231.48)"/>
    <path class="cls-2" d="M207.84,256.5a7.13,7.13,0,0,0,0,14.26h41.4a7.13,7.13,0,0,0,0-14.26h-41.4Z" transform="translate(-179.06 -231.48)"/>
</svg>